<svg xmlns="http://www.w3.org/2000/svg" height="20px" viewBox="0 -960 960 960" width="20px" fill="#1f1f1f"><path d="M480.09-124.08q-73.15 0-138.06-27.83-64.92-27.83-113.66-76.61-48.73-48.78-76.51-113.51-27.78-64.74-27.78-137.75 0-73.6 28.06-138.62 28.05-65.02 76.75-113.71l34.73 34.73q-41.2 41.19-66.39 97.24-25.19 56.05-25.19 119.95 0 128.08 89.99 218.12 89.99 90.03 217.97 90.03t217.97-90.03q89.99-90.04 89.99-218.12 0-64.04-24.19-120.02-24.19-55.98-66.39-97.17l34.73-34.73q49.7 48.69 76.75 113.58 27.06 64.89 27.06 138.75 0 72.93-27.81 137.69-27.81 64.75-76.48 113.59T618.6-151.87q-64.36 27.79-138.51 27.79ZM456.12-432v-403.92h47.96V-432h-47.96Z"/></svg>